<svg width="350" height="46" viewBox="0 0 350 46" fill="none" xmlns="http://www.w3.org/2000/svg">
    <!-- LOGO ICON -->
    <g clip-path="url(#clip0)">
        <path d="M23 1.35294L24.3529 9.32519L23 17.2974L8.12107 16.5089C7.97027 8.19178 14.6886 1.35294 23 1.35294Z" fill="#90CC1C"/>
        <path d="M37.8789 16.5089L23 17.2973C23 16.8476 23 1.80265 23 1.35294C31.2787 1.35294 38.0304 8.15877 37.8789 16.5089Z" fill="#2AAC6B"/>
        <path d="M8.12107 16.5089C8.12107 16.5089 16.2387 29.5618 16.2387 29.4911L23 42.2321C20.603 43.798 17.804 44.647 14.8824 44.647C6.6764 44.647 0 37.9711 0 29.7647C0 24.0335 3.26582 18.9954 8.12107 16.5089Z" fill="#FF4E8D"/>
        <path d="M37.8789 16.5089C42.7371 18.9968 46 24.0366 46 29.7647C46 37.9706 39.324 44.647 31.1176 44.647C28.1968 44.647 25.3977 43.7985 23 42.2321L37.8789 16.5089Z" fill="#7000FE"/>
    </g>

    <!-- BRAND NAME -->
    <!-- <text x="65" y="32" font-size="26" font-weight="700" fill="#111" font-family="Arial, sans-serif">
        SENOJ CONCEPTS
    </text> -->

    <defs>
        <clipPath id="clip0">
            <rect width="100" height="100" fill="white"/>
        </clipPath>
    </defs>
</svg>
